#!OML:ASF H:\Terrain\Patient Classification 1\Walking\steve\steve.ASF
:FULLY-SPECIFIED
:DEGREES
31
root 7.61167 14.7007 -30.5192 6.38952 8.4882 5.89586
lowerback -0.21899 -2.97384 -5.29956
upperback -2.2851 -4.00096 1.34218
thorax -1.77684 -1.89826 4.38885
lowerneck -9.24033 0.457079 -1.16382
upperneck 12.8552 0.364487 3.0281
head 5.38256 0.333652 1.16379
rclavicle 3.04886e-014 1.98785e-014
rhumerus -61.8098 -11.5462 -71.8333
rradius 26.2239
rwrist 7.7844
rhand -17.1451 -33.4154
rfingers 7.12502
rthumb 9.09537 -63.1993
lclavicle 3.04886e-014 1.98785e-014
lhumerus -7.58996 -27.3048 90.544
lradius 54.8958
lwrist 16.2058
lhand -22.5196 -20.366
lfingers 7.12502
lthumb 3.90703 9.57793
rfemur -48.7339 1.3935 12.1146
rtibia 29.1992
rfoot -16.8888 0.51838
rtoes -6.51251
lfemur 27.1484 -4.87445 -28.5514
ltibia 1.27222e-014
lfoot -2.9342 -8.26436
ltoes 7.1877
32
root 7.60845 14.65 -30.298 6.40393 8.6959 5.95027
lowerback 0.00746036 -3.01591 -5.25551
upperback -2.21255 -4.06615 1.43745
thorax -1.81759 -1.93128 4.47366
lowerneck -8.77335 0.0255605 -1.0399
upperneck 11.4572 -0.109077 2.25624
head 4.88082 0.0462378 0.861358
rclavicle 7.70291e-016 2.06736e-014
rhumerus -61.8973 -11.584 -71.5375
rradius 26.243
rwrist 7.67539
rhand -17.3158 -32.299
rfingers 7.12502
rthumb 8.93057 -62.09
lclavicle 7.70291e-016 2.06736e-014
lhumerus -7.99027 -27.2897 90.7803
lradius 54.9962
lwrist 15.9
lhand -22.4118 -20.5125
lfingers 7.12502
lthumb 4.01114 9.42953
rfemur -48.9008 1.14177 12.3317
rtibia 30.3636
rfoot -15.0803 1.34215
rtoes -8.87212
lfemur 27.9561 -5.22288 -28.498
ltibia 2.8625e-014
lfoot -1.42647 -7.81141
ltoes 13.1589
33
root 7.60998 14.6176 -30.0736 6.67576 8.94265 5.75347
lowerback 0.0330699 -3.05079 -4.81456
upperback -2.25609 -4.10693 1.57158
thorax -1.89147 -1.95513 4.36899
lowerneck -8.93896 -0.24852 -1.08504
upperneck 10.7304 -0.420526 1.93614
head 4.68948 -0.130336 0.747028
rclavicle 3.26255e-014 5.56597e-015
rhumerus -62.0957 -11.2815 -71.8923
rradius 26.8002
rwrist 7.16506
rhand -16.449 -32.695
rfingers 7.12502
rthumb 9.767 -62.4485
lclavicle 3.26255e-014 5.56597e-015
lhumerus -8.53433 -27.3701 91.0529
lradius 55.0475
lwrist 15.6255
lhand -22.4454 -20.5722
lfingers 7.12502
lthumb 3.97868 9.37038
rfemur -49.49 0.668848 12.9621
rtibia 31.8324
rfoot -12.4173 1.58078
rtoes -6.04116
lfemur 28.3903 -5.6138 -28.1981
ltibia 3.49861e-014
lfoot 0.495409 -7.09626
ltoes 18.6052
34
root 7.61065 14.6239 -29.8485 7.0198 9.1843 5.52064
lowerback -0.0598205 -3.04264 -4.31
upperback -2.30862 -4.08392 1.69651
thorax -1.92011 -1.94966 4.21219
lowerneck -9.26289 -0.337141 -0.954339
upperneck 10.2569 -0.518937 1.68051
head 4.59858 -0.189085 0.639398
rclavicle 2.87244e-014 -4.77083e-015
rhumerus -62.6281 -10.6458 -72.7899
rradius 28.2099
rwrist 6.12018
rhand -15.8582 -34.0204
rfingers 7.12502
rthumb 10.337 -63.7464
lclavicle 2.87244e-014 -4.77083e-015
lhumerus -9.14671 -27.5167 91.3547
lradius 55.1489
lwrist 15.3758
lhand -22.3607 -20.3805
lfingers 7.12502
lthumb 4.06045 9.56054
rfemur -50.1945 0.610268 13.2312
rtibia 33.5772
rfoot -10.3421 0.703754
rtoes -6.66413
lfemur 28.6631 -5.97096 -27.9449
ltibia -9.54166e-015
lfoot 1.25854 -6.89884
ltoes 12.1071
35
root 7.60767 14.6127 -29.6251 7.16837 9.30082 5.38241
lowerback 0.151515 -3.0469 -3.94484
upperback -2.42931 -4.09191 1.81393
thorax -2.17833 -1.95019 4.14724
lowerneck -8.9758 -0.227633 -0.771395
upperneck 9.11334 -0.35798 1.43524
head 4.66194 -0.126409 0.603477
rclavicle 8.29926e-015 -2.38542e-014
rhumerus -63.3205 -10.0473 -73.208
rradius 29.2718
rwrist 5.11106
rhand -15.6736 -34.4956
rfingers 7.12502
rthumb 10.515 -64.2126
lclavicle 8.29926e-015 -2.38542e-014
lhumerus -9.98177 -27.3307 91.7795
lradius 55.0423
lwrist 15.0503
lhand -22.3871 -20.5385
lfingers 7.12502
lthumb 4.03498 9.40301
rfemur -50.7896 0.744612 13.3049
rtibia 35.5592
rfoot -8.67433 0.715152
rtoes -4.37408
lfemur 29.1504 -6.18821 -27.81
ltibia -7.31528e-014
lfoot 1.79228 -6.92524
ltoes 3.93905
36
root 7.60285 14.5622 -29.4095 7.28538 9.28414 5.47287
lowerback 0.624915 -3.02173 -3.8336
upperback -2.68055 -4.0736 1.90315
thorax -2.70747 -1.92378 4.21695
lowerneck -8.6351 -0.11187 -0.690974
upperneck 8.70472 -0.196804 1.30849
head 4.43983 -0.0527538 0.553774
rclavicle 1.99779e-014 2.38542e-014
rhumerus -63.8806 -9.8416 -72.9424
rradius 29.4366
rwrist 5.01708
rhand -15.7407 -34.9218
rfingers 7.12502
rthumb 10.4503 -64.642
lclavicle 1.99779e-014 2.38542e-014
lhumerus -11.047 -26.9469 92.4326
lradius 54.7113
lwrist 14.7027
lhand -22.2625 -20.489
lfingers 7.12502
lthumb 4.15526 9.45027
rfemur -51.4707 0.740683 13.3428
rtibia 37.6242
rfoot -7.29332 1.40306
rtoes 1.24978
lfemur 29.7032 -6.28914 -27.9314
ltibia 3.49861e-014
lfoot 3.52006 -5.94811
ltoes 8.34787
37
root 7.60142 14.5243 -29.203 7.54791 9.13157 5.61044
lowerback 0.966755 -2.98002 -3.78653
upperback -2.80768 -4.02734 1.99575
thorax -3.03318 -1.88955 4.31245
lowerneck -9.23704 -0.0843198 -0.478191
upperneck 8.80763 -0.147218 0.930671
head 4.59832 -0.0391674 0.392438
rclavicle 3.6477e-014 2.22639e-014
rhumerus -64.1032 -9.59478 -72.7323
rradius 29.5016
rwrist 5.22234
rhand -15.6129 -35.1504
rfingers 7.12502
rthumb 10.5735 -64.8644
lclavicle 3.6477e-014 2.22639e-014
lhumerus -11.8374 -26.5388 92.8948
lradius 54.374
lwrist 14.3045
lhand -22.3938 -20.3567
lfingers 7.12502
lthumb 4.02846 9.58492
rfemur -52.234 0.752586 13.3872
rtibia 39.6294
rfoot -6.44948 1.81536
rtoes 1.22724
lfemur 29.9669 -6.2778 -28.1086
ltibia 4.45278e-014
lfoot 5.06104 -4.67761
ltoes 6.54381
